<svg width="157" height="120" viewBox="0 0 157 120" fill="none" xmlns="http://www.w3.org/2000/svg">
<path d="M11.25 31.2812C11.4583 31.1979 11.6979 31.1562 11.9688 31.1562C12.2396 31.1562 12.5208 31.1979 12.8125 31.2812V38.125H22.2812C22.4062 38.4375 22.4688 38.8229 22.4688 39.2812C22.4688 39.6771 22.4062 40.0417 22.2812 40.375H12.8125V57.0625C12.8125 60.3542 14.3229 62 17.3438 62C18.4896 62 19.4688 61.7812 20.2812 61.3438C21.1146 60.9062 22.0312 60.25 23.0312 59.375C23.5521 59.4375 23.8958 59.6875 24.0625 60.125C23.1458 61.7708 21.7917 63.1458 20 64.25C18.2083 65.3542 16.2396 65.9062 14.0938 65.9062C9.05208 65.9062 6.53125 62.8542 6.53125 56.75V40.375H2.6875C2.60417 40 2.5625 39.7604 2.5625 39.6562C2.5625 39.6354 2.60417 39.3958 2.6875 38.9375C3.6875 38.4375 4.44792 38.0312 4.96875 37.7188C5.51042 37.3854 6.1875 36.9167 7 36.3125C7.83333 35.7083 8.58333 35 9.25 34.1875C9.9375 33.3542 10.6042 32.3854 11.25 31.2812ZM47 44.4688C47 42.1771 48.0417 40.2917 50.125 38.8125C52.2292 37.3333 54.7083 36.5938 57.5625 36.5938C61.0625 36.5938 63.5208 37.2917 64.9375 38.6875C66.375 40.0833 67.0938 42.4375 67.0938 45.75V58.7188C67.0938 59.8854 67.5208 60.4688 68.375 60.4688C69.0625 60.4688 69.9375 59.6354 71 57.9688C71.75 58.0312 72.2604 58.3646 72.5312 58.9688C72.3854 59.1771 72.1354 59.5521 71.7812 60.0938C71.4271 60.6354 71.1667 61.0208 71 61.25C70.8333 61.4792 70.5729 61.8333 70.2188 62.3125C69.8646 62.7708 69.5729 63.1146 69.3438 63.3438C69.1354 63.5729 68.8438 63.8438 68.4688 64.1562C68.1146 64.4688 67.7812 64.7083 67.4688 64.875C67.1771 65.0208 66.8333 65.1458 66.4375 65.25C66.0417 65.375 65.6458 65.4375 65.25 65.4375C64.2083 65.4375 63.3438 65.0625 62.6562 64.3125C61.9896 63.5625 61.5938 62.4062 61.4688 60.8438C61.4479 60.8646 61.125 61.1667 60.5 61.75C59.875 62.3333 59.4375 62.7292 59.1875 62.9375C58.9583 63.125 58.5104 63.4688 57.8438 63.9688C57.1979 64.4479 56.6458 64.7917 56.1875 65C55.7292 65.2083 55.1562 65.4062 54.4688 65.5938C53.7812 65.8021 53.1042 65.9062 52.4375 65.9062C51.375 65.9062 50.4271 65.7604 49.5938 65.4688C48.7812 65.1771 48.1458 64.8229 47.6875 64.4062C47.2292 63.9896 46.8542 63.5104 46.5625 62.9688C46.2708 62.4062 46.0729 61.8958 45.9688 61.4375C45.8854 60.9792 45.8438 60.5208 45.8438 60.0625C45.8438 58.6667 46.0729 57.4896 46.5312 56.5312C47.0104 55.5729 47.8854 54.6771 49.1562 53.8438C50.4479 53.0104 52.0312 52.2708 53.9062 51.625C55.7812 50.9792 58.3021 50.25 61.4688 49.4375V45.0938C61.4688 42.9896 61 41.4167 60.0625 40.375C59.1458 39.3333 57.9062 38.8125 56.3438 38.8125C54.9479 38.8125 53.7708 39.0938 52.8125 39.6562C51.875 40.1979 51.3021 40.8333 51.0938 41.5625C53.1354 41.875 54.1562 42.9896 54.1562 44.9062C54.1562 45.7812 53.8438 46.5521 53.2188 47.2188C52.5938 47.8854 51.7188 48.2188 50.5938 48.2188C49.6562 48.2188 48.8229 47.8958 48.0938 47.25C47.3646 46.5833 47 45.6562 47 44.4688ZM61.4688 57.9688V51.4375C59.5521 51.875 57.9688 52.3542 56.7188 52.875C55.4688 53.375 54.5104 53.9271 53.8438 54.5312C53.1979 55.1354 52.75 55.7604 52.5 56.4062C52.25 57.0312 52.125 57.7604 52.125 58.5938C52.125 59.6354 52.4271 60.4583 53.0312 61.0625C53.6562 61.6458 54.4167 61.9375 55.3125 61.9375C57.3958 61.9375 59.4479 60.6146 61.4688 57.9688ZM105.219 65.9062C104.198 65.9062 103.271 65.8229 102.438 65.6562C101.625 65.4896 100.99 65.3125 100.531 65.125C100.094 64.9375 99.5 64.6562 98.75 64.2812C97.9375 64.2812 96.7396 64.5833 95.1562 65.1875C94.8854 65.0208 94.6979 64.8333 94.5938 64.625C94.6979 64.2917 94.8229 63.1562 94.9688 61.2188C95.1354 59.2812 95.2188 57.5521 95.2188 56.0312C95.4896 55.9062 95.9792 55.8438 96.6875 55.8438C97.0625 57.0521 97.4479 58.0833 97.8438 58.9375C98.2604 59.7917 98.7812 60.625 99.4062 61.4375C100.052 62.2292 100.823 62.8333 101.719 63.25C102.635 63.6458 103.677 63.8438 104.844 63.8438C106.656 63.8438 108.073 63.375 109.094 62.4375C110.135 61.5 110.656 60.4375 110.656 59.25C110.656 58.3542 110.51 57.5938 110.219 56.9688C109.927 56.3438 109.271 55.6875 108.25 55C107.25 54.2917 105.812 53.5938 103.938 52.9062C102.771 52.4896 101.781 52.1042 100.969 51.75C100.156 51.3958 99.3125 50.9583 98.4375 50.4375C97.5833 49.9167 96.8958 49.3854 96.375 48.8438C95.8542 48.2812 95.4271 47.6146 95.0938 46.8438C94.7604 46.0729 94.5938 45.2292 94.5938 44.3125C94.5938 43.6458 94.6667 42.9896 94.8125 42.3438C94.9792 41.6771 95.2812 40.9896 95.7188 40.2812C96.1771 39.5729 96.7396 38.9583 97.4062 38.4375C98.0938 37.8958 99 37.4583 100.125 37.125C101.271 36.7708 102.562 36.5938 104 36.5938C104.583 36.5938 105.094 36.625 105.531 36.6875C105.99 36.75 106.531 36.8646 107.156 37.0312C107.802 37.1771 108.156 37.2604 108.219 37.2812C108.677 37.1771 109.146 37.0417 109.625 36.875C110.125 36.7083 110.406 36.6146 110.469 36.5938H111.281C111.781 39.5938 112.427 42.1458 113.219 44.25C112.969 44.5208 112.562 44.6562 112 44.6562C110.271 42.5729 108.792 41.0521 107.562 40.0938C106.354 39.1146 104.979 38.625 103.438 38.625C102.229 38.625 101.167 38.8958 100.25 39.4375C99.3333 39.9792 98.875 40.8021 98.875 41.9062C98.875 43.3021 99.4271 44.3958 100.531 45.1875C101.656 45.9792 103.729 46.9896 106.75 48.2188C108.146 48.7812 109.24 49.25 110.031 49.625C110.844 50 111.656 50.4479 112.469 50.9688C113.281 51.4896 113.875 52.0312 114.25 52.5938C114.646 53.1354 114.969 53.7917 115.219 54.5625C115.469 55.3333 115.594 56.2292 115.594 57.25C115.594 59.4583 114.573 61.4583 112.531 63.25C110.51 65.0208 108.073 65.9062 105.219 65.9062ZM137.812 39.2812C141.854 38.8646 145.375 38.0104 148.375 36.7188C148.896 36.9271 149.26 37.1979 149.469 37.5312C149.469 48.3438 149.552 56.0729 149.719 60.7188C149.74 61.2604 149.896 61.7292 150.188 62.125C150.5 62.5 150.938 62.7917 151.5 63C152.062 63.2083 152.531 63.3646 152.906 63.4688C153.281 63.5521 153.771 63.6354 154.375 63.7188C154.5 63.9688 154.562 64.2292 154.562 64.5C154.562 64.7708 154.5 65 154.375 65.1875C151.625 65.0625 148.958 65 146.375 65C143.833 65 141.188 65.0625 138.438 65.1875C138.354 64.8542 138.312 64.625 138.312 64.5C138.312 64.3958 138.354 64.1354 138.438 63.7188C139.125 63.6354 139.688 63.5521 140.125 63.4688C140.562 63.3646 141.104 63.2083 141.75 63C142.396 62.7917 142.885 62.5 143.219 62.125C143.552 61.7292 143.729 61.2604 143.75 60.7188C143.833 58.6562 143.875 56.1562 143.875 53.2188C143.875 52.2396 143.865 50.5729 143.844 48.2188C143.823 45.8646 143.812 43.8021 143.812 42.0312C142.625 41.3021 140.625 40.875 137.812 40.75C137.729 40.4167 137.688 40.1562 137.688 39.9688C137.688 39.8438 137.729 39.6146 137.812 39.2812ZM142.719 26.2188C142.719 25.1562 143.094 24.25 143.844 23.5C144.615 22.75 145.521 22.375 146.562 22.375C147.625 22.375 148.531 22.75 149.281 23.5C150.031 24.25 150.406 25.1562 150.406 26.2188C150.406 27.2604 150.031 28.1667 149.281 28.9375C148.531 29.6875 147.625 30.0625 146.562 30.0625C145.521 30.0625 144.615 29.6875 143.844 28.9375C143.094 28.1667 142.719 27.2604 142.719 26.2188Z" fill="black"/>
<rect x="8" y="75" width="146" height="1" fill="black"/>
<path d="M30.46 108H28.66V95.3H24.2V93.72H34.9V95.3H30.46V108ZM46.1886 93.72C47.3753 93.72 48.3486 93.8733 49.1086 94.18C49.8819 94.4733 50.4553 94.92 50.8286 95.52C51.2019 96.12 51.3886 96.8733 51.3886 97.78C51.3886 98.54 51.2486 99.1733 50.9686 99.68C50.6886 100.187 50.3286 100.593 49.8886 100.9C49.4619 101.193 49.0086 101.427 48.5286 101.6L52.4486 108H50.3486L46.8886 102.1H44.0486V108H42.2486V93.72H46.1886ZM46.0886 95.28H44.0486V100.58H46.1886C46.9619 100.58 47.5953 100.48 48.0886 100.28C48.5819 100.067 48.9419 99.76 49.1686 99.36C49.4086 98.96 49.5286 98.46 49.5286 97.86C49.5286 97.2333 49.4019 96.7333 49.1486 96.36C48.9086 95.9867 48.5353 95.7133 48.0286 95.54C47.5219 95.3667 46.8753 95.28 46.0886 95.28ZM68.8453 108L67.1253 103.58H61.4653L59.7653 108H57.9453L63.5253 93.66H65.1453L70.7053 108H68.8453ZM64.9853 97.66C64.9453 97.5533 64.8786 97.36 64.7853 97.08C64.692 96.8 64.5986 96.5133 64.5053 96.22C64.4253 95.9133 64.3586 95.68 64.3053 95.52C64.2386 95.7867 64.1653 96.06 64.0853 96.34C64.0186 96.6067 63.9453 96.8533 63.8653 97.08C63.7986 97.3067 63.7386 97.5 63.6853 97.66L62.0653 101.98H66.5853L64.9853 97.66ZM87.9141 93.72L82.8141 108H81.0141L75.9141 93.72H77.7941L81.0141 102.88C81.1607 103.267 81.2874 103.64 81.3941 104C81.5007 104.36 81.5941 104.707 81.6741 105.04C81.7674 105.36 81.8474 105.68 81.9141 106C81.9807 105.68 82.0541 105.353 82.1341 105.02C82.2274 104.687 82.3274 104.34 82.4341 103.98C82.5541 103.62 82.6807 103.24 82.8141 102.84L86.0141 93.72H87.9141ZM103.022 108H95.0416V93.72H103.022V95.3H96.8416V99.76H102.662V101.32H96.8416V106.42H103.022V108ZM111.35 108V93.72H113.15V106.4H119.39V108H111.35ZM135.134 104.18C135.134 105.033 134.927 105.76 134.514 106.36C134.1 106.947 133.507 107.4 132.734 107.72C131.974 108.04 131.074 108.2 130.034 108.2C129.5 108.2 128.987 108.173 128.494 108.12C128.014 108.067 127.574 107.993 127.174 107.9C126.774 107.793 126.42 107.667 126.114 107.52V105.8C126.594 106.013 127.187 106.207 127.894 106.38C128.614 106.553 129.354 106.64 130.114 106.64C130.82 106.64 131.414 106.547 131.894 106.36C132.374 106.173 132.734 105.907 132.974 105.56C133.214 105.213 133.334 104.807 133.334 104.34C133.334 103.873 133.234 103.48 133.034 103.16C132.834 102.84 132.487 102.547 131.994 102.28C131.514 102 130.84 101.707 129.974 101.4C129.36 101.173 128.82 100.933 128.354 100.68C127.9 100.413 127.52 100.113 127.214 99.78C126.907 99.4467 126.674 99.0667 126.514 98.64C126.367 98.2133 126.294 97.72 126.294 97.16C126.294 96.4 126.487 95.7533 126.874 95.22C127.26 94.6733 127.794 94.2533 128.474 93.96C129.167 93.6667 129.96 93.52 130.854 93.52C131.64 93.52 132.36 93.5933 133.014 93.74C133.667 93.8867 134.26 94.08 134.794 94.32L134.234 95.86C133.74 95.6467 133.2 95.4667 132.614 95.32C132.04 95.1733 131.44 95.1 130.814 95.1C130.214 95.1 129.714 95.1867 129.314 95.36C128.914 95.5333 128.614 95.78 128.414 96.1C128.214 96.4067 128.114 96.7667 128.114 97.18C128.114 97.66 128.214 98.06 128.414 98.38C128.614 98.7 128.94 98.9867 129.394 99.24C129.847 99.4933 130.46 99.7667 131.234 100.06C132.074 100.367 132.78 100.7 133.354 101.06C133.94 101.407 134.38 101.827 134.674 102.32C134.98 102.813 135.134 103.433 135.134 104.18Z" fill="black"/>
</svg>
